<svg id="visual" viewBox="0 0 2160 360" width="2160" height="360" xmlns="http://www.w3.org/2000/svg" xmlns:xlink="http://www.w3.org/1999/xlink" version="1.1"><rect x="0" y="0" width="2160" height="360" fill="#4d4d4d"></rect><path d="M0 107L22.5 101.8C45 96.7 90 86.3 135 98.3C180 110.3 225 144.7 270 155.8C315 167 360 155 405 150C450 145 495 147 540 142.7C585 138.3 630 127.7 675 123.8C720 120 765 123 810 128.5C855 134 900 142 945 143.3C990 144.7 1035 139.3 1080 141.2C1125 143 1170 152 1215 143.7C1260 135.3 1305 109.7 1350 108.5C1395 107.3 1440 130.7 1485 140C1530 149.3 1575 144.7 1620 139.8C1665 135 1710 130 1755 126.5C1800 123 1845 121 1890 119.2C1935 117.3 1980 115.7 2025 111.8C2070 108 2115 102 2137.5 99L2160 96L2160 0L2137.5 0C2115 0 2070 0 2025 0C1980 0 1935 0 1890 0C1845 0 1800 0 1755 0C1710 0 1665 0 1620 0C1575 0 1530 0 1485 0C1440 0 1395 0 1350 0C1305 0 1260 0 1215 0C1170 0 1125 0 1080 0C1035 0 990 0 945 0C900 0 855 0 810 0C765 0 720 0 675 0C630 0 585 0 540 0C495 0 450 0 405 0C360 0 315 0 270 0C225 0 180 0 135 0C90 0 45 0 22.5 0L0 0Z" fill="#4d4d4d"></path><path d="M0 69L22.5 69.3C45 69.7 90 70.3 135 69.7C180 69 225 67 270 64.7C315 62.3 360 59.7 405 70.3C450 81 495 105 540 118.2C585 131.3 630 133.7 675 128.5C720 123.3 765 110.7 810 108.7C855 106.7 900 115.3 945 121.2C990 127 1035 130 1080 119.8C1125 109.7 1170 86.3 1215 90.3C1260 94.3 1305 125.7 1350 127.7C1395 129.7 1440 102.3 1485 91C1530 79.7 1575 84.3 1620 98.5C1665 112.7 1710 136.3 1755 134C1800 131.7 1845 103.3 1890 97C1935 90.7 1980 106.3 2025 114.8C2070 123.3 2115 124.7 2137.5 125.3L2160 126L2160 0L2137.5 0C2115 0 2070 0 2025 0C1980 0 1935 0 1890 0C1845 0 1800 0 1755 0C1710 0 1665 0 1620 0C1575 0 1530 0 1485 0C1440 0 1395 0 1350 0C1305 0 1260 0 1215 0C1170 0 1125 0 1080 0C1035 0 990 0 945 0C900 0 855 0 810 0C765 0 720 0 675 0C630 0 585 0 540 0C495 0 450 0 405 0C360 0 315 0 270 0C225 0 180 0 135 0C90 0 45 0 22.5 0L0 0Z" fill="#6c5447"></path><path d="M0 117L22.5 111C45 105 90 93 135 82C180 71 225 61 270 57.5C315 54 360 57 405 59.2C450 61.3 495 62.7 540 73.5C585 84.3 630 104.7 675 106C720 107.3 765 89.7 810 78C855 66.3 900 60.7 945 64.5C990 68.3 1035 81.7 1080 86.5C1125 91.3 1170 87.7 1215 84C1260 80.3 1305 76.7 1350 72.8C1395 69 1440 65 1485 76C1530 87 1575 113 1620 118.8C1665 124.7 1710 110.3 1755 108.5C1800 106.7 1845 117.3 1890 111.8C1935 106.3 1980 84.7 2025 72.3C2070 60 2115 57 2137.5 55.5L2160 54L2160 0L2137.5 0C2115 0 2070 0 2025 0C1980 0 1935 0 1890 0C1845 0 1800 0 1755 0C1710 0 1665 0 1620 0C1575 0 1530 0 1485 0C1440 0 1395 0 1350 0C1305 0 1260 0 1215 0C1170 0 1125 0 1080 0C1035 0 990 0 945 0C900 0 855 0 810 0C765 0 720 0 675 0C630 0 585 0 540 0C495 0 450 0 405 0C360 0 315 0 270 0C225 0 180 0 135 0C90 0 45 0 22.5 0L0 0Z" fill="#895b41"></path><path d="M0 92L22.5 94.3C45 96.7 90 101.3 135 91.8C180 82.3 225 58.7 270 47C315 35.3 360 35.7 405 40C450 44.3 495 52.7 540 58.5C585 64.3 630 67.7 675 67C720 66.3 765 61.7 810 60.5C855 59.3 900 61.7 945 69C990 76.3 1035 88.7 1080 96.8C1125 105 1170 109 1215 102.7C1260 96.3 1305 79.7 1350 68.7C1395 57.7 1440 52.3 1485 50C1530 47.7 1575 48.3 1620 47C1665 45.7 1710 42.3 1755 53C1800 63.7 1845 88.3 1890 96C1935 103.7 1980 94.3 2025 94.8C2070 95.3 2115 105.7 2137.5 110.8L2160 116L2160 0L2137.5 0C2115 0 2070 0 2025 0C1980 0 1935 0 1890 0C1845 0 1800 0 1755 0C1710 0 1665 0 1620 0C1575 0 1530 0 1485 0C1440 0 1395 0 1350 0C1305 0 1260 0 1215 0C1170 0 1125 0 1080 0C1035 0 990 0 945 0C900 0 855 0 810 0C765 0 720 0 675 0C630 0 585 0 540 0C495 0 450 0 405 0C360 0 315 0 270 0C225 0 180 0 135 0C90 0 45 0 22.5 0L0 0Z" fill="#a5623a"></path><path d="M0 49L22.5 51.2C45 53.3 90 57.7 135 63.3C180 69 225 76 270 78.8C315 81.7 360 80.3 405 74.5C450 68.7 495 58.3 540 52.2C585 46 630 44 675 44C720 44 765 46 810 48.5C855 51 900 54 945 53.8C990 53.7 1035 50.3 1080 46.8C1125 43.3 1170 39.7 1215 45.3C1260 51 1305 66 1350 68.2C1395 70.3 1440 59.7 1485 56.2C1530 52.7 1575 56.3 1620 56.7C1665 57 1710 54 1755 54.8C1800 55.7 1845 60.3 1890 65.5C1935 70.7 1980 76.3 2025 72.5C2070 68.7 2115 55.3 2137.5 48.7L2160 42L2160 0L2137.5 0C2115 0 2070 0 2025 0C1980 0 1935 0 1890 0C1845 0 1800 0 1755 0C1710 0 1665 0 1620 0C1575 0 1530 0 1485 0C1440 0 1395 0 1350 0C1305 0 1260 0 1215 0C1170 0 1125 0 1080 0C1035 0 990 0 945 0C900 0 855 0 810 0C765 0 720 0 675 0C630 0 585 0 540 0C495 0 450 0 405 0C360 0 315 0 270 0C225 0 180 0 135 0C90 0 45 0 22.5 0L0 0Z" fill="#c16831"></path><path d="M0 26L22.5 25.5C45 25 90 24 135 26.5C180 29 225 35 270 41.2C315 47.3 360 53.7 405 51.3C450 49 495 38 540 36C585 34 630 41 675 44.3C720 47.7 765 47.3 810 48.7C855 50 900 53 945 51.3C990 49.7 1035 43.3 1080 44.8C1125 46.3 1170 55.7 1215 58.5C1260 61.3 1305 57.7 1350 50.8C1395 44 1440 34 1485 34.2C1530 34.3 1575 44.7 1620 52C1665 59.3 1710 63.7 1755 65.8C1800 68 1845 68 1890 62C1935 56 1980 44 2025 35.5C2070 27 2115 22 2137.5 19.5L2160 17L2160 0L2137.5 0C2115 0 2070 0 2025 0C1980 0 1935 0 1890 0C1845 0 1800 0 1755 0C1710 0 1665 0 1620 0C1575 0 1530 0 1485 0C1440 0 1395 0 1350 0C1305 0 1260 0 1215 0C1170 0 1125 0 1080 0C1035 0 990 0 945 0C900 0 855 0 810 0C765 0 720 0 675 0C630 0 585 0 540 0C495 0 450 0 405 0C360 0 315 0 270 0C225 0 180 0 135 0C90 0 45 0 22.5 0L0 0Z" fill="#dd6e26"></path><path d="M0 20L22.5 24.2C45 28.3 90 36.7 135 37C180 37.3 225 29.7 270 25C315 20.3 360 18.7 405 17.5C450 16.3 495 15.7 540 14.2C585 12.7 630 10.3 675 13.3C720 16.3 765 24.7 810 29C855 33.3 900 33.7 945 30.5C990 27.3 1035 20.7 1080 17.5C1125 14.3 1170 14.7 1215 17.7C1260 20.7 1305 26.3 1350 30.7C1395 35 1440 38 1485 39.3C1530 40.7 1575 40.3 1620 36.3C1665 32.3 1710 24.7 1755 24.8C1800 25 1845 33 1890 34C1935 35 1980 29 2025 25.8C2070 22.7 2115 22.3 2137.5 22.2L2160 22L2160 0L2137.5 0C2115 0 2070 0 2025 0C1980 0 1935 0 1890 0C1845 0 1800 0 1755 0C1710 0 1665 0 1620 0C1575 0 1530 0 1485 0C1440 0 1395 0 1350 0C1305 0 1260 0 1215 0C1170 0 1125 0 1080 0C1035 0 990 0 945 0C900 0 855 0 810 0C765 0 720 0 675 0C630 0 585 0 540 0C495 0 450 0 405 0C360 0 315 0 270 0C225 0 180 0 135 0C90 0 45 0 22.5 0L0 0Z" fill="#f97316"></path></svg>