<svg id="visual" viewBox="0 0 2160 360" width="2160" height="360" xmlns="http://www.w3.org/2000/svg" xmlns:xlink="http://www.w3.org/1999/xlink" version="1.1"><path d="M0 296L24 291.7C48 287.3 96 278.7 144 277.8C192 277 240 284 288 285.7C336 287.3 384 283.7 432 283.5C480 283.3 528 286.7 576 276.2C624 265.7 672 241.3 720 237.2C768 233 816 249 864 263.5C912 278 960 291 1008 295.2C1056 299.3 1104 294.7 1152 288.5C1200 282.3 1248 274.7 1296 269C1344 263.3 1392 259.7 1440 265.8C1488 272 1536 288 1584 280.5C1632 273 1680 242 1728 234.3C1776 226.7 1824 242.3 1872 247.7C1920 253 1968 248 2016 242C2064 236 2112 229 2136 225.5L2160 222L2160 361L2136 361C2112 361 2064 361 2016 361C1968 361 1920 361 1872 361C1824 361 1776 361 1728 361C1680 361 1632 361 1584 361C1536 361 1488 361 1440 361C1392 361 1344 361 1296 361C1248 361 1200 361 1152 361C1104 361 1056 361 1008 361C960 361 912 361 864 361C816 361 768 361 720 361C672 361 624 361 576 361C528 361 480 361 432 361C384 361 336 361 288 361C240 361 192 361 144 361C96 361 48 361 24 361L0 361Z" fill="#f97316"></path><path d="M0 308L24 298.7C48 289.3 96 270.7 144 266.7C192 262.7 240 273.3 288 273C336 272.7 384 261.3 432 263.8C480 266.3 528 282.7 576 294.5C624 306.3 672 313.7 720 305C768 296.3 816 271.7 864 266.3C912 261 960 275 1008 284C1056 293 1104 297 1152 300.2C1200 303.3 1248 305.7 1296 306.7C1344 307.7 1392 307.3 1440 303C1488 298.7 1536 290.3 1584 283.5C1632 276.7 1680 271.3 1728 268C1776 264.7 1824 263.3 1872 260.2C1920 257 1968 252 2016 255.3C2064 258.7 2112 270.3 2136 276.2L2160 282L2160 361L2136 361C2112 361 2064 361 2016 361C1968 361 1920 361 1872 361C1824 361 1776 361 1728 361C1680 361 1632 361 1584 361C1536 361 1488 361 1440 361C1392 361 1344 361 1296 361C1248 361 1200 361 1152 361C1104 361 1056 361 1008 361C960 361 912 361 864 361C816 361 768 361 720 361C672 361 624 361 576 361C528 361 480 361 432 361C384 361 336 361 288 361C240 361 192 361 144 361C96 361 48 361 24 361L0 361Z" fill="#cf6b2c"></path><path d="M0 290L24 294.2C48 298.3 96 306.7 144 302C192 297.3 240 279.7 288 279.5C336 279.3 384 296.7 432 308.2C480 319.7 528 325.3 576 325.5C624 325.7 672 320.3 720 316.3C768 312.3 816 309.7 864 304C912 298.3 960 289.7 1008 288.8C1056 288 1104 295 1152 300.5C1200 306 1248 310 1296 312.8C1344 315.7 1392 317.3 1440 315.3C1488 313.3 1536 307.7 1584 308.3C1632 309 1680 316 1728 314.5C1776 313 1824 303 1872 298.3C1920 293.7 1968 294.3 2016 300.3C2064 306.3 2112 317.7 2136 323.3L2160 329L2160 361L2136 361C2112 361 2064 361 2016 361C1968 361 1920 361 1872 361C1824 361 1776 361 1728 361C1680 361 1632 361 1584 361C1536 361 1488 361 1440 361C1392 361 1344 361 1296 361C1248 361 1200 361 1152 361C1104 361 1056 361 1008 361C960 361 912 361 864 361C816 361 768 361 720 361C672 361 624 361 576 361C528 361 480 361 432 361C384 361 336 361 288 361C240 361 192 361 144 361C96 361 48 361 24 361L0 361Z" fill="#a5623a"></path><path d="M0 331L24 326.5C48 322 96 313 144 311.8C192 310.7 240 317.3 288 320.5C336 323.7 384 323.3 432 324.8C480 326.3 528 329.7 576 330.2C624 330.7 672 328.3 720 325C768 321.7 816 317.3 864 314.7C912 312 960 311 1008 308.8C1056 306.7 1104 303.3 1152 302.2C1200 301 1248 302 1296 305.8C1344 309.7 1392 316.3 1440 321.5C1488 326.7 1536 330.3 1584 329.8C1632 329.3 1680 324.7 1728 316.2C1776 307.7 1824 295.3 1872 292.8C1920 290.3 1968 297.7 2016 298C2064 298.3 2112 291.7 2136 288.3L2160 285L2160 361L2136 361C2112 361 2064 361 2016 361C1968 361 1920 361 1872 361C1824 361 1776 361 1728 361C1680 361 1632 361 1584 361C1536 361 1488 361 1440 361C1392 361 1344 361 1296 361C1248 361 1200 361 1152 361C1104 361 1056 361 1008 361C960 361 912 361 864 361C816 361 768 361 720 361C672 361 624 361 576 361C528 361 480 361 432 361C384 361 336 361 288 361C240 361 192 361 144 361C96 361 48 361 24 361L0 361Z" fill="#7b5844"></path><path d="M0 320L24 319.7C48 319.3 96 318.7 144 319.5C192 320.3 240 322.7 288 326C336 329.3 384 333.7 432 335.7C480 337.7 528 337.3 576 337.3C624 337.3 672 337.7 720 335.2C768 332.7 816 327.3 864 328.8C912 330.3 960 338.7 1008 336.8C1056 335 1104 323 1152 320.8C1200 318.7 1248 326.3 1296 332.3C1344 338.3 1392 342.7 1440 343C1488 343.3 1536 339.7 1584 338C1632 336.3 1680 336.7 1728 334.5C1776 332.3 1824 327.7 1872 323C1920 318.3 1968 313.7 2016 316.2C2064 318.7 2112 328.3 2136 333.2L2160 338L2160 361L2136 361C2112 361 2064 361 2016 361C1968 361 1920 361 1872 361C1824 361 1776 361 1728 361C1680 361 1632 361 1584 361C1536 361 1488 361 1440 361C1392 361 1344 361 1296 361C1248 361 1200 361 1152 361C1104 361 1056 361 1008 361C960 361 912 361 864 361C816 361 768 361 720 361C672 361 624 361 576 361C528 361 480 361 432 361C384 361 336 361 288 361C240 361 192 361 144 361C96 361 48 361 24 361L0 361Z" fill="#4d4d4d"></path></svg>