<svg id="visual" viewBox="0 0 2160 360" width="2160" height="360" xmlns="http://www.w3.org/2000/svg" xmlns:xlink="http://www.w3.org/1999/xlink" version="1.1"><rect x="0" y="0" width="2160" height="360" fill="#4d4d4d"></rect><path d="M0 199L27.7 205.5C55.3 212 110.7 225 166 235.2C221.3 245.3 276.7 252.7 332 248.3C387.3 244 442.7 228 498.2 214.3C553.7 200.7 609.3 189.3 664.8 195.5C720.3 201.7 775.7 225.3 831 228.7C886.3 232 941.7 215 997 216.3C1052.3 217.7 1107.7 237.3 1163 237.2C1218.3 237 1273.7 217 1329 213.2C1384.3 209.3 1439.7 221.7 1495.2 233.5C1550.7 245.3 1606.3 256.7 1661.8 253.3C1717.3 250 1772.7 232 1828 229.2C1883.3 226.3 1938.7 238.7 1994 237.8C2049.3 237 2104.7 223 2132.3 216L2160 209L2160 361L2132.3 361C2104.7 361 2049.3 361 1994 361C1938.7 361 1883.3 361 1828 361C1772.7 361 1717.3 361 1661.8 361C1606.3 361 1550.7 361 1495.2 361C1439.7 361 1384.3 361 1329 361C1273.7 361 1218.3 361 1163 361C1107.7 361 1052.3 361 997 361C941.7 361 886.3 361 831 361C775.7 361 720.3 361 664.8 361C609.3 361 553.7 361 498.2 361C442.7 361 387.3 361 332 361C276.7 361 221.3 361 166 361C110.7 361 55.3 361 27.7 361L0 361Z" fill="#4d4d4d"></path><path d="M0 213L27.7 214.2C55.3 215.3 110.7 217.7 166 223.2C221.3 228.7 276.7 237.3 332 234C387.3 230.7 442.7 215.3 498.2 213C553.7 210.7 609.3 221.3 664.8 230C720.3 238.7 775.7 245.3 831 248.7C886.3 252 941.7 252 997 255C1052.3 258 1107.7 264 1163 266.8C1218.3 269.7 1273.7 269.3 1329 261.7C1384.3 254 1439.7 239 1495.2 235.5C1550.7 232 1606.3 240 1661.8 246.3C1717.3 252.7 1772.7 257.3 1828 263.7C1883.3 270 1938.7 278 1994 268.2C2049.3 258.3 2104.7 230.7 2132.3 216.8L2160 203L2160 361L2132.3 361C2104.7 361 2049.3 361 1994 361C1938.7 361 1883.3 361 1828 361C1772.7 361 1717.3 361 1661.8 361C1606.3 361 1550.7 361 1495.2 361C1439.7 361 1384.3 361 1329 361C1273.7 361 1218.3 361 1163 361C1107.7 361 1052.3 361 997 361C941.7 361 886.3 361 831 361C775.7 361 720.3 361 664.8 361C609.3 361 553.7 361 498.2 361C442.7 361 387.3 361 332 361C276.7 361 221.3 361 166 361C110.7 361 55.3 361 27.7 361L0 361Z" fill="#6c5447"></path><path d="M0 288L27.7 288C55.3 288 110.7 288 166 280.2C221.3 272.3 276.7 256.7 332 255C387.3 253.3 442.7 265.7 498.2 266.7C553.7 267.7 609.3 257.3 664.8 249.7C720.3 242 775.7 237 831 233.7C886.3 230.3 941.7 228.7 997 236.5C1052.3 244.3 1107.7 261.7 1163 270.7C1218.3 279.7 1273.7 280.3 1329 278C1384.3 275.7 1439.7 270.3 1495.2 267.2C1550.7 264 1606.3 263 1661.8 258.8C1717.3 254.7 1772.7 247.3 1828 249.8C1883.3 252.3 1938.7 264.7 1994 267.7C2049.3 270.7 2104.7 264.3 2132.3 261.2L2160 258L2160 361L2132.3 361C2104.7 361 2049.3 361 1994 361C1938.7 361 1883.3 361 1828 361C1772.7 361 1717.3 361 1661.8 361C1606.3 361 1550.7 361 1495.2 361C1439.7 361 1384.3 361 1329 361C1273.7 361 1218.3 361 1163 361C1107.7 361 1052.3 361 997 361C941.7 361 886.3 361 831 361C775.7 361 720.3 361 664.8 361C609.3 361 553.7 361 498.2 361C442.7 361 387.3 361 332 361C276.7 361 221.3 361 166 361C110.7 361 55.3 361 27.7 361L0 361Z" fill="#895b41"></path><path d="M0 289L27.7 282C55.3 275 110.7 261 166 254.8C221.3 248.7 276.7 250.3 332 260.8C387.3 271.3 442.7 290.7 498.2 299.3C553.7 308 609.3 306 664.8 300.3C720.3 294.7 775.7 285.3 831 276C886.3 266.7 941.7 257.3 997 253.3C1052.3 249.3 1107.7 250.7 1163 255C1218.3 259.3 1273.7 266.7 1329 274.2C1384.3 281.7 1439.7 289.3 1495.2 286.8C1550.7 284.3 1606.3 271.7 1661.8 266.2C1717.3 260.7 1772.7 262.3 1828 269.8C1883.3 277.3 1938.7 290.7 1994 293C2049.3 295.3 2104.7 286.7 2132.3 282.3L2160 278L2160 361L2132.3 361C2104.7 361 2049.3 361 1994 361C1938.7 361 1883.3 361 1828 361C1772.7 361 1717.3 361 1661.8 361C1606.3 361 1550.7 361 1495.2 361C1439.7 361 1384.3 361 1329 361C1273.7 361 1218.3 361 1163 361C1107.7 361 1052.3 361 997 361C941.7 361 886.3 361 831 361C775.7 361 720.3 361 664.8 361C609.3 361 553.7 361 498.2 361C442.7 361 387.3 361 332 361C276.7 361 221.3 361 166 361C110.7 361 55.3 361 27.7 361L0 361Z" fill="#a5623a"></path><path d="M0 302L27.7 297.2C55.3 292.3 110.7 282.7 166 282.3C221.3 282 276.7 291 332 297.2C387.3 303.3 442.7 306.7 498.2 301.7C553.7 296.7 609.3 283.3 664.8 284.5C720.3 285.7 775.7 301.3 831 303.2C886.3 305 941.7 293 997 290.8C1052.3 288.7 1107.7 296.3 1163 298.3C1218.3 300.3 1273.7 296.7 1329 293.7C1384.3 290.7 1439.7 288.3 1495.2 290.2C1550.7 292 1606.3 298 1661.8 299.2C1717.3 300.3 1772.7 296.7 1828 291.2C1883.3 285.7 1938.7 278.3 1994 274.7C2049.3 271 2104.7 271 2132.3 271L2160 271L2160 361L2132.3 361C2104.7 361 2049.3 361 1994 361C1938.7 361 1883.3 361 1828 361C1772.7 361 1717.3 361 1661.8 361C1606.3 361 1550.7 361 1495.2 361C1439.7 361 1384.3 361 1329 361C1273.7 361 1218.3 361 1163 361C1107.7 361 1052.3 361 997 361C941.7 361 886.3 361 831 361C775.7 361 720.3 361 664.8 361C609.3 361 553.7 361 498.2 361C442.7 361 387.3 361 332 361C276.7 361 221.3 361 166 361C110.7 361 55.3 361 27.7 361L0 361Z" fill="#c16831"></path><path d="M0 303L27.7 301.5C55.3 300 110.7 297 166 300.3C221.3 303.7 276.7 313.3 332 314.3C387.3 315.3 442.7 307.7 498.2 308.8C553.7 310 609.3 320 664.8 320.5C720.3 321 775.7 312 831 306.5C886.3 301 941.7 299 997 303.5C1052.3 308 1107.7 319 1163 322C1218.3 325 1273.7 320 1329 317.7C1384.3 315.3 1439.7 315.7 1495.2 317.7C1550.7 319.7 1606.3 323.3 1661.8 325.5C1717.3 327.7 1772.7 328.3 1828 328.7C1883.3 329 1938.7 329 1994 326.8C2049.3 324.7 2104.7 320.3 2132.3 318.2L2160 316L2160 361L2132.3 361C2104.7 361 2049.3 361 1994 361C1938.7 361 1883.3 361 1828 361C1772.7 361 1717.3 361 1661.8 361C1606.3 361 1550.7 361 1495.2 361C1439.7 361 1384.3 361 1329 361C1273.7 361 1218.3 361 1163 361C1107.7 361 1052.3 361 997 361C941.7 361 886.3 361 831 361C775.7 361 720.3 361 664.8 361C609.3 361 553.7 361 498.2 361C442.7 361 387.3 361 332 361C276.7 361 221.3 361 166 361C110.7 361 55.3 361 27.7 361L0 361Z" fill="#dd6e26"></path><path d="M0 332L27.7 331.7C55.3 331.3 110.7 330.7 166 329.2C221.3 327.7 276.7 325.3 332 328.3C387.3 331.3 442.7 339.7 498.2 342.5C553.7 345.3 609.3 342.7 664.8 337.5C720.3 332.3 775.7 324.7 831 325.7C886.3 326.7 941.7 336.3 997 337.5C1052.3 338.7 1107.7 331.3 1163 327.3C1218.3 323.3 1273.7 322.7 1329 323C1384.3 323.3 1439.7 324.7 1495.2 325.8C1550.7 327 1606.3 328 1661.8 326.8C1717.3 325.7 1772.7 322.3 1828 320.8C1883.3 319.3 1938.7 319.7 1994 320.2C2049.3 320.7 2104.7 321.3 2132.3 321.7L2160 322L2160 361L2132.3 361C2104.7 361 2049.3 361 1994 361C1938.7 361 1883.3 361 1828 361C1772.7 361 1717.3 361 1661.8 361C1606.3 361 1550.7 361 1495.2 361C1439.7 361 1384.3 361 1329 361C1273.7 361 1218.3 361 1163 361C1107.7 361 1052.3 361 997 361C941.7 361 886.3 361 831 361C775.7 361 720.3 361 664.8 361C609.3 361 553.7 361 498.2 361C442.7 361 387.3 361 332 361C276.7 361 221.3 361 166 361C110.7 361 55.3 361 27.7 361L0 361Z" fill="#f97316"></path></svg>