<svg id="visual" viewBox="0 0 2160 360" width="2160" height="360" xmlns="http://www.w3.org/2000/svg" xmlns:xlink="http://www.w3.org/1999/xlink" version="1.1"><rect x="0" y="0" width="2160" height="360" fill="#ffedd5"></rect><path d="M0 139L24 142.7C48 146.3 96 153.7 144 149.5C192 145.3 240 129.7 288 127.7C336 125.7 384 137.3 432 145.5C480 153.7 528 158.3 576 150.7C624 143 672 123 720 115C768 107 816 111 864 113.8C912 116.7 960 118.3 1008 118.8C1056 119.3 1104 118.7 1152 112.5C1200 106.3 1248 94.7 1296 100.8C1344 107 1392 131 1440 137.7C1488 144.3 1536 133.7 1584 133.3C1632 133 1680 143 1728 145.3C1776 147.7 1824 142.3 1872 134.7C1920 127 1968 117 2016 109C2064 101 2112 95 2136 92L2160 89L2160 0L2136 0C2112 0 2064 0 2016 0C1968 0 1920 0 1872 0C1824 0 1776 0 1728 0C1680 0 1632 0 1584 0C1536 0 1488 0 1440 0C1392 0 1344 0 1296 0C1248 0 1200 0 1152 0C1104 0 1056 0 1008 0C960 0 912 0 864 0C816 0 768 0 720 0C672 0 624 0 576 0C528 0 480 0 432 0C384 0 336 0 288 0C240 0 192 0 144 0C96 0 48 0 24 0L0 0Z" fill="#f97316"></path><path d="M0 87L24 94C48 101 96 115 144 120.3C192 125.7 240 122.3 288 115.3C336 108.3 384 97.7 432 94.5C480 91.3 528 95.7 576 99.8C624 104 672 108 720 105.2C768 102.3 816 92.7 864 87.3C912 82 960 81 1008 83.2C1056 85.3 1104 90.7 1152 99.7C1200 108.7 1248 121.3 1296 127.8C1344 134.3 1392 134.7 1440 126.2C1488 117.7 1536 100.3 1584 97.5C1632 94.7 1680 106.3 1728 115C1776 123.7 1824 129.3 1872 127.7C1920 126 1968 117 2016 117.5C2064 118 2112 128 2136 133L2160 138L2160 0L2136 0C2112 0 2064 0 2016 0C1968 0 1920 0 1872 0C1824 0 1776 0 1728 0C1680 0 1632 0 1584 0C1536 0 1488 0 1440 0C1392 0 1344 0 1296 0C1248 0 1200 0 1152 0C1104 0 1056 0 1008 0C960 0 912 0 864 0C816 0 768 0 720 0C672 0 624 0 576 0C528 0 480 0 432 0C384 0 336 0 288 0C240 0 192 0 144 0C96 0 48 0 24 0L0 0Z" fill="#dd6e26"></path><path d="M0 59L24 69.7C48 80.3 96 101.7 144 107.5C192 113.3 240 103.7 288 100.3C336 97 384 100 432 96.7C480 93.3 528 83.7 576 86C624 88.3 672 102.7 720 105.2C768 107.7 816 98.3 864 97.7C912 97 960 105 1008 101.5C1056 98 1104 83 1152 76C1200 69 1248 70 1296 72.7C1344 75.3 1392 79.7 1440 77.8C1488 76 1536 68 1584 71.3C1632 74.7 1680 89.3 1728 100.2C1776 111 1824 118 1872 118C1920 118 1968 111 2016 103C2064 95 2112 86 2136 81.5L2160 77L2160 0L2136 0C2112 0 2064 0 2016 0C1968 0 1920 0 1872 0C1824 0 1776 0 1728 0C1680 0 1632 0 1584 0C1536 0 1488 0 1440 0C1392 0 1344 0 1296 0C1248 0 1200 0 1152 0C1104 0 1056 0 1008 0C960 0 912 0 864 0C816 0 768 0 720 0C672 0 624 0 576 0C528 0 480 0 432 0C384 0 336 0 288 0C240 0 192 0 144 0C96 0 48 0 24 0L0 0Z" fill="#c16831"></path><path d="M0 60L24 62C48 64 96 68 144 69C192 70 240 68 288 64C336 60 384 54 432 59C480 64 528 80 576 82.3C624 84.7 672 73.3 720 68.2C768 63 816 64 864 64.2C912 64.3 960 63.7 1008 68C1056 72.3 1104 81.7 1152 79.2C1200 76.7 1248 62.3 1296 57.3C1344 52.3 1392 56.7 1440 62.3C1488 68 1536 75 1584 76.2C1632 77.3 1680 72.7 1728 70.2C1776 67.7 1824 67.3 1872 67.2C1920 67 1968 67 2016 69.3C2064 71.7 2112 76.3 2136 78.7L2160 81L2160 0L2136 0C2112 0 2064 0 2016 0C1968 0 1920 0 1872 0C1824 0 1776 0 1728 0C1680 0 1632 0 1584 0C1536 0 1488 0 1440 0C1392 0 1344 0 1296 0C1248 0 1200 0 1152 0C1104 0 1056 0 1008 0C960 0 912 0 864 0C816 0 768 0 720 0C672 0 624 0 576 0C528 0 480 0 432 0C384 0 336 0 288 0C240 0 192 0 144 0C96 0 48 0 24 0L0 0Z" fill="#a5623a"></path><path d="M0 42L24 41C48 40 96 38 144 43.7C192 49.3 240 62.7 288 65.5C336 68.3 384 60.7 432 54.3C480 48 528 43 576 46.8C624 50.7 672 63.3 720 64.8C768 66.3 816 56.7 864 56C912 55.3 960 63.7 1008 62.5C1056 61.3 1104 50.7 1152 45.2C1200 39.7 1248 39.3 1296 41.2C1344 43 1392 47 1440 51C1488 55 1536 59 1584 58.2C1632 57.3 1680 51.7 1728 48.8C1776 46 1824 46 1872 45.3C1920 44.7 1968 43.3 2016 43.3C2064 43.3 2112 44.7 2136 45.3L2160 46L2160 0L2136 0C2112 0 2064 0 2016 0C1968 0 1920 0 1872 0C1824 0 1776 0 1728 0C1680 0 1632 0 1584 0C1536 0 1488 0 1440 0C1392 0 1344 0 1296 0C1248 0 1200 0 1152 0C1104 0 1056 0 1008 0C960 0 912 0 864 0C816 0 768 0 720 0C672 0 624 0 576 0C528 0 480 0 432 0C384 0 336 0 288 0C240 0 192 0 144 0C96 0 48 0 24 0L0 0Z" fill="#895b41"></path><path d="M0 58L24 55.3C48 52.7 96 47.3 144 42.2C192 37 240 32 288 34.7C336 37.3 384 47.7 432 51.8C480 56 528 54 576 50.7C624 47.3 672 42.7 720 43.3C768 44 816 50 864 51.3C912 52.7 960 49.3 1008 49.8C1056 50.3 1104 54.7 1152 56.3C1200 58 1248 57 1296 52.7C1344 48.3 1392 40.7 1440 39.5C1488 38.3 1536 43.7 1584 44.5C1632 45.3 1680 41.7 1728 38.8C1776 36 1824 34 1872 34.2C1920 34.3 1968 36.7 2016 40.2C2064 43.7 2112 48.3 2136 50.7L2160 53L2160 0L2136 0C2112 0 2064 0 2016 0C1968 0 1920 0 1872 0C1824 0 1776 0 1728 0C1680 0 1632 0 1584 0C1536 0 1488 0 1440 0C1392 0 1344 0 1296 0C1248 0 1200 0 1152 0C1104 0 1056 0 1008 0C960 0 912 0 864 0C816 0 768 0 720 0C672 0 624 0 576 0C528 0 480 0 432 0C384 0 336 0 288 0C240 0 192 0 144 0C96 0 48 0 24 0L0 0Z" fill="#6c5447"></path><path d="M0 28L24 27.8C48 27.7 96 27.3 144 27.7C192 28 240 29 288 27.8C336 26.7 384 23.3 432 21.5C480 19.7 528 19.3 576 19.5C624 19.7 672 20.3 720 20.5C768 20.7 816 20.3 864 22.8C912 25.3 960 30.7 1008 32.3C1056 34 1104 32 1152 31.7C1200 31.3 1248 32.7 1296 31.3C1344 30 1392 26 1440 25C1488 24 1536 26 1584 27.3C1632 28.7 1680 29.3 1728 31C1776 32.7 1824 35.3 1872 36.7C1920 38 1968 38 2016 36C2064 34 2112 30 2136 28L2160 26L2160 0L2136 0C2112 0 2064 0 2016 0C1968 0 1920 0 1872 0C1824 0 1776 0 1728 0C1680 0 1632 0 1584 0C1536 0 1488 0 1440 0C1392 0 1344 0 1296 0C1248 0 1200 0 1152 0C1104 0 1056 0 1008 0C960 0 912 0 864 0C816 0 768 0 720 0C672 0 624 0 576 0C528 0 480 0 432 0C384 0 336 0 288 0C240 0 192 0 144 0C96 0 48 0 24 0L0 0Z" fill="#4d4d4d"></path></svg>