<svg id="visual" viewBox="0 0 2160 720" width="2160" height="720" xmlns="http://www.w3.org/2000/svg" xmlns:xlink="http://www.w3.org/1999/xlink" version="1.1"><rect x="0" y="0" width="2160" height="720" fill="#4d4d4d"></rect><path d="M0 602L15.7 611.5C31.3 621 62.7 640 94 658.7C125.3 677.3 156.7 695.7 188 703.5C219.3 711.3 250.7 708.7 282 693.5C313.3 678.3 344.7 650.7 376 643C407.3 635.3 438.7 647.7 469.8 656C501 664.3 532 668.7 563.2 655.7C594.3 642.7 625.7 612.3 657 608.8C688.3 605.3 719.7 628.7 751 630C782.3 631.3 813.7 610.7 845 612.2C876.3 613.7 907.7 637.3 939 643C970.3 648.7 1001.7 636.3 1033 623.8C1064.3 611.3 1095.7 598.7 1127 593.8C1158.3 589 1189.7 592 1221 598.8C1252.3 605.7 1283.7 616.3 1315 620.3C1346.3 624.3 1377.7 621.7 1409 626.3C1440.3 631 1471.7 643 1503 646C1534.3 649 1565.7 643 1596.8 630.8C1628 618.7 1659 600.3 1690.2 604.3C1721.3 608.3 1752.7 634.7 1784 653C1815.3 671.3 1846.7 681.7 1878 668.8C1909.3 656 1940.7 620 1972 602.3C2003.3 584.7 2034.7 585.3 2066 605.2C2097.3 625 2128.7 664 2144.3 683.5L2160 703L2160 721L2144.3 721C2128.7 721 2097.3 721 2066 721C2034.7 721 2003.3 721 1972 721C1940.7 721 1909.3 721 1878 721C1846.7 721 1815.3 721 1784 721C1752.7 721 1721.3 721 1690.2 721C1659 721 1628 721 1596.8 721C1565.7 721 1534.3 721 1503 721C1471.7 721 1440.3 721 1409 721C1377.7 721 1346.3 721 1315 721C1283.7 721 1252.3 721 1221 721C1189.7 721 1158.3 721 1127 721C1095.7 721 1064.3 721 1033 721C1001.7 721 970.3 721 939 721C907.7 721 876.3 721 845 721C813.7 721 782.3 721 751 721C719.7 721 688.3 721 657 721C625.7 721 594.3 721 563.2 721C532 721 501 721 469.8 721C438.7 721 407.3 721 376 721C344.7 721 313.3 721 282 721C250.7 721 219.3 721 188 721C156.7 721 125.3 721 94 721C62.7 721 31.3 721 15.7 721L0 721Z" fill="#f97316"></path><path d="M0 705L15.7 689.7C31.3 674.3 62.7 643.7 94 642.2C125.3 640.7 156.7 668.3 188 675C219.3 681.7 250.7 667.3 282 661.5C313.3 655.7 344.7 658.3 376 658.7C407.3 659 438.7 657 469.8 664.5C501 672 532 689 563.2 684.3C594.3 679.7 625.7 653.3 657 651.7C688.3 650 719.7 673 751 677.8C782.3 682.7 813.7 669.3 845 663.8C876.3 658.3 907.7 660.7 939 661.5C970.3 662.3 1001.7 661.7 1033 661.5C1064.3 661.3 1095.7 661.7 1127 660.7C1158.3 659.7 1189.7 657.3 1221 661.7C1252.3 666 1283.7 677 1315 682C1346.3 687 1377.7 686 1409 684.8C1440.3 683.7 1471.7 682.3 1503 684.3C1534.3 686.3 1565.7 691.7 1596.8 686.5C1628 681.3 1659 665.7 1690.2 655C1721.3 644.3 1752.7 638.7 1784 647.2C1815.3 655.7 1846.7 678.3 1878 690C1909.3 701.7 1940.7 702.3 1972 685.7C2003.3 669 2034.7 635 2066 633.2C2097.3 631.3 2128.7 661.7 2144.3 676.8L2160 692L2160 721L2144.3 721C2128.7 721 2097.3 721 2066 721C2034.7 721 2003.3 721 1972 721C1940.7 721 1909.3 721 1878 721C1846.7 721 1815.3 721 1784 721C1752.7 721 1721.3 721 1690.2 721C1659 721 1628 721 1596.8 721C1565.7 721 1534.3 721 1503 721C1471.7 721 1440.3 721 1409 721C1377.7 721 1346.3 721 1315 721C1283.7 721 1252.3 721 1221 721C1189.7 721 1158.3 721 1127 721C1095.7 721 1064.3 721 1033 721C1001.7 721 970.3 721 939 721C907.7 721 876.3 721 845 721C813.7 721 782.3 721 751 721C719.7 721 688.3 721 657 721C625.7 721 594.3 721 563.2 721C532 721 501 721 469.8 721C438.7 721 407.3 721 376 721C344.7 721 313.3 721 282 721C250.7 721 219.3 721 188 721C156.7 721 125.3 721 94 721C62.7 721 31.3 721 15.7 721L0 721Z" fill="#fa8b36"></path><path d="M0 676L15.7 668.8C31.3 661.7 62.7 647.3 94 639.5C125.3 631.7 156.7 630.3 188 629.8C219.3 629.3 250.7 629.7 282 629.5C313.3 629.3 344.7 628.7 376 641.7C407.3 654.7 438.7 681.3 469.8 691.2C501 701 532 694 563.2 684.3C594.3 674.7 625.7 662.3 657 662C688.3 661.7 719.7 673.3 751 675C782.3 676.7 813.7 668.3 845 657.5C876.3 646.7 907.7 633.3 939 641.7C970.3 650 1001.7 680 1033 684.2C1064.3 688.3 1095.7 666.7 1127 652.3C1158.3 638 1189.7 631 1221 627.2C1252.3 623.3 1283.7 622.7 1315 625.3C1346.3 628 1377.7 634 1409 637.3C1440.3 640.7 1471.7 641.3 1503 643.3C1534.3 645.3 1565.7 648.7 1596.8 660.5C1628 672.3 1659 692.7 1690.2 703.3C1721.3 714 1752.7 715 1784 714.7C1815.3 714.3 1846.7 712.7 1878 697C1909.3 681.3 1940.7 651.7 1972 649.3C2003.3 647 2034.7 672 2066 672.2C2097.3 672.3 2128.7 647.7 2144.3 635.3L2160 623L2160 721L2144.3 721C2128.7 721 2097.3 721 2066 721C2034.7 721 2003.3 721 1972 721C1940.7 721 1909.3 721 1878 721C1846.7 721 1815.3 721 1784 721C1752.7 721 1721.3 721 1690.2 721C1659 721 1628 721 1596.8 721C1565.7 721 1534.3 721 1503 721C1471.7 721 1440.3 721 1409 721C1377.7 721 1346.3 721 1315 721C1283.7 721 1252.3 721 1221 721C1189.7 721 1158.3 721 1127 721C1095.7 721 1064.3 721 1033 721C1001.7 721 970.3 721 939 721C907.7 721 876.3 721 845 721C813.7 721 782.3 721 751 721C719.7 721 688.3 721 657 721C625.7 721 594.3 721 563.2 721C532 721 501 721 469.8 721C438.7 721 407.3 721 376 721C344.7 721 313.3 721 282 721C250.7 721 219.3 721 188 721C156.7 721 125.3 721 94 721C62.7 721 31.3 721 15.7 721L0 721Z" fill="#fba253"></path><path d="M0 635L15.7 642.7C31.3 650.3 62.7 665.7 94 667.8C125.3 670 156.7 659 188 653.2C219.3 647.3 250.7 646.7 282 649.7C313.3 652.7 344.7 659.3 376 670.5C407.3 681.7 438.7 697.3 469.8 699.3C501 701.3 532 689.7 563.2 678.5C594.3 667.3 625.7 656.7 657 658.5C688.3 660.3 719.7 674.7 751 681.2C782.3 687.7 813.7 686.3 845 679.8C876.3 673.3 907.7 661.7 939 665.8C970.3 670 1001.7 690 1033 689.5C1064.3 689 1095.7 668 1127 666.3C1158.3 664.7 1189.7 682.3 1221 692.8C1252.3 703.3 1283.7 706.7 1315 703.5C1346.3 700.3 1377.7 690.7 1409 680.2C1440.3 669.7 1471.7 658.3 1503 650.2C1534.3 642 1565.7 637 1596.8 642C1628 647 1659 662 1690.2 675.5C1721.3 689 1752.7 701 1784 696.5C1815.3 692 1846.7 671 1878 659.8C1909.3 648.7 1940.7 647.3 1972 654.2C2003.3 661 2034.7 676 2066 684.3C2097.3 692.7 2128.7 694.3 2144.3 695.2L2160 696L2160 721L2144.3 721C2128.7 721 2097.3 721 2066 721C2034.7 721 2003.3 721 1972 721C1940.7 721 1909.3 721 1878 721C1846.7 721 1815.3 721 1784 721C1752.7 721 1721.3 721 1690.2 721C1659 721 1628 721 1596.8 721C1565.7 721 1534.3 721 1503 721C1471.7 721 1440.3 721 1409 721C1377.7 721 1346.3 721 1315 721C1283.7 721 1252.3 721 1221 721C1189.7 721 1158.3 721 1127 721C1095.7 721 1064.3 721 1033 721C1001.7 721 970.3 721 939 721C907.7 721 876.3 721 845 721C813.7 721 782.3 721 751 721C719.7 721 688.3 721 657 721C625.7 721 594.3 721 563.2 721C532 721 501 721 469.8 721C438.7 721 407.3 721 376 721C344.7 721 313.3 721 282 721C250.7 721 219.3 721 188 721C156.7 721 125.3 721 94 721C62.7 721 31.3 721 15.7 721L0 721Z" fill="#fcb671"></path><path d="M0 669L15.7 669.5C31.3 670 62.7 671 94 678.5C125.3 686 156.7 700 188 697.5C219.3 695 250.7 676 282 667.2C313.3 658.3 344.7 659.7 376 658.2C407.3 656.7 438.7 652.3 469.8 661C501 669.7 532 691.3 563.2 693.5C594.3 695.7 625.7 678.3 657 668.2C688.3 658 719.7 655 751 652.7C782.3 650.3 813.7 648.7 845 653.5C876.3 658.3 907.7 669.7 939 672C970.3 674.3 1001.7 667.7 1033 668.2C1064.3 668.7 1095.7 676.3 1127 685.2C1158.3 694 1189.7 704 1221 704.8C1252.3 705.7 1283.7 697.3 1315 693.2C1346.3 689 1377.7 689 1409 688.3C1440.3 687.7 1471.7 686.3 1503 688.2C1534.3 690 1565.7 695 1596.8 697.2C1628 699.3 1659 698.7 1690.2 696.5C1721.3 694.3 1752.7 690.7 1784 691C1815.3 691.3 1846.7 695.7 1878 693.3C1909.3 691 1940.7 682 1972 684.2C2003.3 686.3 2034.7 699.7 2066 701.2C2097.3 702.7 2128.7 692.3 2144.3 687.2L2160 682L2160 721L2144.3 721C2128.7 721 2097.3 721 2066 721C2034.7 721 2003.3 721 1972 721C1940.7 721 1909.3 721 1878 721C1846.7 721 1815.3 721 1784 721C1752.7 721 1721.3 721 1690.2 721C1659 721 1628 721 1596.8 721C1565.7 721 1534.3 721 1503 721C1471.7 721 1440.3 721 1409 721C1377.7 721 1346.3 721 1315 721C1283.7 721 1252.3 721 1221 721C1189.7 721 1158.3 721 1127 721C1095.7 721 1064.3 721 1033 721C1001.7 721 970.3 721 939 721C907.7 721 876.3 721 845 721C813.7 721 782.3 721 751 721C719.7 721 688.3 721 657 721C625.7 721 594.3 721 563.2 721C532 721 501 721 469.8 721C438.7 721 407.3 721 376 721C344.7 721 313.3 721 282 721C250.7 721 219.3 721 188 721C156.7 721 125.3 721 94 721C62.7 721 31.3 721 15.7 721L0 721Z" fill="#fdc991"></path><path d="M0 685L15.7 690.2C31.3 695.3 62.7 705.7 94 703C125.3 700.3 156.7 684.7 188 685C219.3 685.3 250.7 701.7 282 709.2C313.3 716.7 344.7 715.3 376 707.8C407.3 700.3 438.7 686.7 469.8 681.7C501 676.7 532 680.3 563.2 679.2C594.3 678 625.7 672 657 669.2C688.3 666.3 719.7 666.7 751 673.8C782.3 681 813.7 695 845 698.5C876.3 702 907.7 695 939 696.3C970.3 697.7 1001.7 707.3 1033 704C1064.3 700.7 1095.7 684.3 1127 682C1158.3 679.7 1189.7 691.3 1221 692C1252.3 692.7 1283.7 682.3 1315 676.3C1346.3 670.3 1377.7 668.7 1409 672.8C1440.3 677 1471.7 687 1503 690C1534.3 693 1565.7 689 1596.8 685C1628 681 1659 677 1690.2 675.8C1721.3 674.7 1752.7 676.3 1784 681.8C1815.3 687.3 1846.7 696.7 1878 702.3C1909.3 708 1940.7 710 1972 710.5C2003.3 711 2034.7 710 2066 705.3C2097.3 700.7 2128.7 692.3 2144.3 688.2L2160 684L2160 721L2144.3 721C2128.7 721 2097.3 721 2066 721C2034.7 721 2003.3 721 1972 721C1940.7 721 1909.3 721 1878 721C1846.7 721 1815.3 721 1784 721C1752.7 721 1721.3 721 1690.2 721C1659 721 1628 721 1596.8 721C1565.7 721 1534.3 721 1503 721C1471.7 721 1440.3 721 1409 721C1377.7 721 1346.3 721 1315 721C1283.7 721 1252.3 721 1221 721C1189.7 721 1158.3 721 1127 721C1095.7 721 1064.3 721 1033 721C1001.7 721 970.3 721 939 721C907.7 721 876.3 721 845 721C813.7 721 782.3 721 751 721C719.7 721 688.3 721 657 721C625.7 721 594.3 721 563.2 721C532 721 501 721 469.8 721C438.7 721 407.3 721 376 721C344.7 721 313.3 721 282 721C250.7 721 219.3 721 188 721C156.7 721 125.3 721 94 721C62.7 721 31.3 721 15.7 721L0 721Z" fill="#fedbb2"></path><path d="M0 716L15.7 714.2C31.3 712.3 62.7 708.7 94 707.2C125.3 705.7 156.7 706.3 188 703C219.3 699.7 250.7 692.3 282 694.3C313.3 696.3 344.7 707.7 376 711.7C407.3 715.7 438.7 712.3 469.8 707.8C501 703.3 532 697.7 563.2 693.8C594.3 690 625.7 688 657 687.8C688.3 687.7 719.7 689.3 751 690.2C782.3 691 813.7 691 845 694.5C876.3 698 907.7 705 939 704.2C970.3 703.3 1001.7 694.7 1033 692.8C1064.3 691 1095.7 696 1127 698.5C1158.3 701 1189.7 701 1221 701.5C1252.3 702 1283.7 703 1315 702.2C1346.3 701.3 1377.7 698.7 1409 695.3C1440.3 692 1471.7 688 1503 688C1534.3 688 1565.7 692 1596.8 693.2C1628 694.3 1659 692.7 1690.2 694.3C1721.3 696 1752.7 701 1784 702.7C1815.3 704.3 1846.7 702.7 1878 700.5C1909.3 698.3 1940.7 695.7 1972 695.3C2003.3 695 2034.7 697 2066 697.8C2097.3 698.7 2128.7 698.3 2144.3 698.2L2160 698L2160 721L2144.3 721C2128.7 721 2097.3 721 2066 721C2034.7 721 2003.3 721 1972 721C1940.7 721 1909.3 721 1878 721C1846.7 721 1815.3 721 1784 721C1752.7 721 1721.3 721 1690.2 721C1659 721 1628 721 1596.8 721C1565.7 721 1534.3 721 1503 721C1471.7 721 1440.3 721 1409 721C1377.7 721 1346.3 721 1315 721C1283.7 721 1252.3 721 1221 721C1189.7 721 1158.3 721 1127 721C1095.7 721 1064.3 721 1033 721C1001.7 721 970.3 721 939 721C907.7 721 876.3 721 845 721C813.7 721 782.3 721 751 721C719.7 721 688.3 721 657 721C625.7 721 594.3 721 563.2 721C532 721 501 721 469.8 721C438.7 721 407.3 721 376 721C344.7 721 313.3 721 282 721C250.7 721 219.3 721 188 721C156.7 721 125.3 721 94 721C62.7 721 31.3 721 15.7 721L0 721Z" fill="#ffedd5"></path></svg>